<svg id="Layer_1" data-name="Layer 1" xmlns="http://www.w3.org/2000/svg" viewBox="0 0 676 651">
  <g>
    <path d="M253.75-79.38h0a20.39,20.39,0,0,1,11.66,3.66,20.35,20.35,0,0,1,8.49,13.2,20.34,20.34,0,0,1-3.32,15.33L213,35.8a20.5,20.5,0,0,1-33.69-23.37l57.57-83a20.52,20.52,0,0,1,16.86-8.82m0-3a23.47,23.47,0,0,0-19.33,10.11l-57.56,83a23.5,23.5,0,0,0,5.92,32.71h0a23.49,23.49,0,0,0,32.7-5.92l57.56-83a23.49,23.49,0,0,0-5.92-32.7h0a23.33,23.33,0,0,0-13.37-4.2Z" fill="#3e14d6"/>
    <path d="M492.24,80.79v3a20.5,20.5,0,0,1,16.67,32.41l-58.66,82.22a20.5,20.5,0,0,1-33.37-23.81l58.65-82.22a20.56,20.56,0,0,1,16.71-8.6v-3m0,0a23.46,23.46,0,0,0-19.15,9.86l-58.66,82.22a23.51,23.51,0,0,0,5.49,32.78h0a23.49,23.49,0,0,0,32.78-5.49l58.65-82.22a23.5,23.5,0,0,0-5.49-32.78h0a23.37,23.37,0,0,0-13.62-4.37Z" fill="#3e14d6"/>
    <path d="M376.81,1.6h0a20.51,20.51,0,0,1,16.82,32.19l-57.56,83a20.5,20.5,0,1,1-33.69-23.37l57.56-83A20.54,20.54,0,0,1,376.81,1.6m0-3A23.47,23.47,0,0,0,357.48,8.71l-57.56,83a23.5,23.5,0,0,0,5.91,32.7h0a23.51,23.51,0,0,0,32.71-5.92l57.56-83a23.49,23.49,0,0,0-5.92-32.7h0a23.33,23.33,0,0,0-13.37-4.2Z" fill="#3e14d6"/>
    <path d="M507-76.39h0a20.39,20.39,0,0,1,11.66,3.66A20.52,20.52,0,0,1,523.8-44.2l-57.56,83a20.5,20.5,0,1,1-33.69-23.37l57.56-83A20.54,20.54,0,0,1,507-76.39m0-3a23.46,23.46,0,0,0-19.33,10.11l-57.57,83A23.52,23.52,0,0,0,436,46.42h0a23.49,23.49,0,0,0,32.7-5.92l57.57-83a23.52,23.52,0,0,0-5.92-32.71h0A23.42,23.42,0,0,0,507-79.39Z" fill="#3e14d6"/>
    <path d="M639.11,13.86h0a20.51,20.51,0,0,1,16.83,32.19l-57.57,83a20.5,20.5,0,1,1-33.68-23.37l57.56-83a20.52,20.52,0,0,1,16.86-8.82m0-3A23.49,23.49,0,0,0,619.78,21l-57.56,83a23.5,23.5,0,0,0,5.92,32.71h0a23.49,23.49,0,0,0,32.7-5.92l57.56-83a23.5,23.5,0,0,0-5.92-32.71h0a23.39,23.39,0,0,0-13.37-4.19Z" fill="#3e14d6"/>
    <path d="M625.91,180.41h0a20.51,20.51,0,0,1,16.83,32.19l-57.57,83a20.52,20.52,0,0,1-16.86,8.82,20.5,20.5,0,0,1-16.83-32.18l57.57-83a20.52,20.52,0,0,1,16.86-8.82m0-3a23.47,23.47,0,0,0-19.33,10.11l-57.56,83a23.49,23.49,0,0,0,5.92,32.7h0a23.49,23.49,0,0,0,32.7-5.92l57.56-83a23.51,23.51,0,0,0-19.29-36.9Z" fill="#3e14d6"/>
    <path d="M230.68,76.39h0a20.5,20.5,0,0,1,16.83,32.18L177.75,209.15A20.54,20.54,0,0,1,160.88,218a20.5,20.5,0,0,1-16.82-32.18L213.82,85.21a20.52,20.52,0,0,1,16.86-8.82m0-3A23.49,23.49,0,0,0,211.35,83.5L141.59,184.08a23.51,23.51,0,0,0,5.92,32.7h0a23.49,23.49,0,0,0,32.7-5.92L250,110.28a23.5,23.5,0,0,0-5.91-32.7h0a23.45,23.45,0,0,0-13.38-4.19Z" fill="#3e14d6"/>
    <path d="M342.53,154.1h0a20.49,20.49,0,0,1,16.82,32.18L289.59,286.86a20.5,20.5,0,0,1-33.69-23.37l69.76-100.57a20.52,20.52,0,0,1,16.87-8.82m0-3a23.47,23.47,0,0,0-19.33,10.11L253.44,261.78a23.5,23.5,0,0,0,5.92,32.71h0a23.49,23.49,0,0,0,32.7-5.92L361.82,188a23.5,23.5,0,0,0-19.29-36.89Z" fill="#3e14d6"/>
    <path d="M493,223.87v3a20.5,20.5,0,0,1,16.82,32.19L440,359.63a20.5,20.5,0,0,1-33.69-23.36l69.76-100.58A20.54,20.54,0,0,1,493,226.87v-3m0,0A23.46,23.46,0,0,0,473.63,234L403.87,334.56a23.49,23.49,0,0,0,5.92,32.7h0a23.49,23.49,0,0,0,32.7-5.92l69.76-100.57a23.52,23.52,0,0,0-5.92-32.71h0A23.39,23.39,0,0,0,493,223.87Z" fill="#3e14d6"/>
    <path d="M629.46,321.69h0a20.51,20.51,0,0,1,16.83,32.19L576.53,454.46a20.5,20.5,0,1,1-33.69-23.37L612.6,330.51a20.52,20.52,0,0,1,16.86-8.82m0-3a23.49,23.49,0,0,0-19.33,10.11L540.37,429.38a23.51,23.51,0,0,0,5.92,32.7h0a23.48,23.48,0,0,0,32.7-5.91l69.76-100.58a23.49,23.49,0,0,0-5.91-32.7h0a23.38,23.38,0,0,0-13.38-4.2Z" fill="#3e14d6"/>
    <path d="M313.53,327h0a20.5,20.5,0,0,1,16.82,32.18L260.59,459.76A20.5,20.5,0,1,1,226.9,436.4l69.76-100.58A20.54,20.54,0,0,1,313.53,327m0-3a23.46,23.46,0,0,0-19.33,10.11L224.44,434.69a23.5,23.5,0,1,0,38.62,26.78l69.76-100.58a23.51,23.51,0,0,0-5.92-32.7h0A23.42,23.42,0,0,0,313.53,324Z" fill="#3e14d6"/>
    <path d="M190.68,258.12v3A20.49,20.49,0,0,1,207.5,293.3L137.74,393.88a20.5,20.5,0,1,1-33.69-23.37l69.76-100.57a20.5,20.5,0,0,1,16.86-8.82v-3m0,0a23.49,23.49,0,0,0-19.33,10.11L101.58,368.8a23.52,23.52,0,0,0,5.92,32.71h0a23.51,23.51,0,0,0,32.71-5.92L210,295a23.5,23.5,0,0,0-5.91-32.7h0a23.42,23.42,0,0,0-13.38-4.19Z" fill="#3e14d6"/>
    <path d="M465.71,398.15v3a20.5,20.5,0,0,1,16.83,32.19L412.78,533.92a20.5,20.5,0,1,1-33.69-23.37L448.85,410a20.52,20.52,0,0,1,16.86-8.82v-3m0,0a23.49,23.49,0,0,0-19.33,10.11L376.62,508.84a23.52,23.52,0,0,0,5.92,32.71h0a23.49,23.49,0,0,0,32.7-5.92L485,435.05a23.5,23.5,0,0,0-5.91-32.7h0a23.38,23.38,0,0,0-13.38-4.2Z" fill="#3e14d6"/>
    <path d="M303.38,498.24h0a20.5,20.5,0,0,1,16.82,32.19L250.44,631a20.5,20.5,0,1,1-33.69-23.37l69.76-100.58a20.54,20.54,0,0,1,16.87-8.82m0-3a23.46,23.46,0,0,0-19.33,10.11L214.29,605.93a23.5,23.5,0,1,0,38.62,26.79l69.76-100.58a23.51,23.51,0,0,0-19.29-36.9Z" fill="#3e14d6"/>
    <path d="M162,420.4h0a20.5,20.5,0,0,1,16.82,32.19L109.1,553.16A20.5,20.5,0,1,1,75.41,529.8l69.76-100.58A20.54,20.54,0,0,1,162,420.4m0-3a23.46,23.46,0,0,0-19.33,10.11L73,528.09a23.5,23.5,0,0,0,5.91,32.7h0a23.51,23.51,0,0,0,32.71-5.92L181.33,454.3a23.52,23.52,0,0,0-5.92-32.71h0A23.42,23.42,0,0,0,162,417.4Z" fill="#3e14d6"/>
  </g>
</svg>
