<svg id="Layer_1" data-name="Layer 1" xmlns="http://www.w3.org/2000/svg" viewBox="0 0 676 651">
  <g>
    <path d="M491,605.46h0a20.5,20.5,0,0,1,16.82,32.19l-57.56,83a20.5,20.5,0,1,1-33.69-23.37l57.56-83A20.53,20.53,0,0,1,491,605.46m0-3a23.49,23.49,0,0,0-19.34,10.11l-57.56,83a23.51,23.51,0,0,0,5.92,32.7h0a23.48,23.48,0,0,0,32.7-5.91l57.56-83a23.5,23.5,0,0,0-5.91-32.7h0A23.42,23.42,0,0,0,491,602.46Z" fill="#3e14d6"/>
    <path d="M253.61,443.06h0a20.5,20.5,0,0,1,16.67,32.41l-58.65,82.22a20.5,20.5,0,1,1-33.38-23.81l58.65-82.22a20.55,20.55,0,0,1,16.71-8.6m0-3a23.48,23.48,0,0,0-19.15,9.85L175.8,532.14a23.51,23.51,0,0,0,5.49,32.78h0a23.49,23.49,0,0,0,32.78-5.49l58.65-82.22a23.5,23.5,0,0,0-5.48-32.78h0a23.42,23.42,0,0,0-13.63-4.37Z" fill="#3e14d6"/>
    <path d="M368,524.48h0a20.5,20.5,0,0,1,16.82,32.18l-57.56,83a20.5,20.5,0,1,1-33.69-23.37l57.56-83A20.54,20.54,0,0,1,368,524.48m0-3a23.46,23.46,0,0,0-19.33,10.11l-57.56,83a23.5,23.5,0,0,0,5.91,32.7h0a23.49,23.49,0,0,0,32.71-5.91l57.56-83a23.51,23.51,0,0,0-5.92-32.7h0A23.39,23.39,0,0,0,368,521.48Z" fill="#3e14d6"/>
    <path d="M237.78,602.47h0a20.51,20.51,0,0,1,16.83,32.19l-57.57,83a20.5,20.5,0,0,1-33.69-23.37l57.57-83a20.52,20.52,0,0,1,16.86-8.82m0-3a23.47,23.47,0,0,0-19.33,10.11l-57.56,83a23.49,23.49,0,0,0,5.92,32.7h0a23.48,23.48,0,0,0,32.7-5.91l57.56-83a23.5,23.5,0,0,0-5.92-32.71h0a23.39,23.39,0,0,0-13.37-4.19Z" fill="#3e14d6"/>
    <path d="M105.65,512.22h0a20.5,20.5,0,0,1,16.82,32.19l-57.56,83A20.5,20.5,0,1,1,31.22,604l57.56-83a20.53,20.53,0,0,1,16.87-8.82m0-3a23.49,23.49,0,0,0-19.33,10.11l-57.56,83A23.51,23.51,0,0,0,34.67,635h0a23.49,23.49,0,0,0,32.7-5.92l57.56-83A23.51,23.51,0,0,0,119,513.41h0a23.42,23.42,0,0,0-13.38-4.19Z" fill="#3e14d6"/>
    <path d="M118.85,345.67h0a20.5,20.5,0,0,1,16.82,32.18l-57.56,83a20.5,20.5,0,1,1-33.69-23.37l57.56-83a20.53,20.53,0,0,1,16.87-8.82m0-3a23.49,23.49,0,0,0-19.34,10.11L42,435.77a23.51,23.51,0,0,0,5.92,32.7h0a23.5,23.5,0,0,0,32.7-5.91l57.56-83a23.5,23.5,0,0,0-5.91-32.7h0a23.42,23.42,0,0,0-13.37-4.19Z" fill="#3e14d6"/>
    <path d="M526.27,432.11h0a20.5,20.5,0,0,1,16.83,32.18L473.34,564.87a20.54,20.54,0,0,1-16.87,8.82,20.5,20.5,0,0,1-16.82-32.18l69.76-100.58a20.5,20.5,0,0,1,16.86-8.82m0-3a23.47,23.47,0,0,0-19.33,10.11L437.18,539.8a23.49,23.49,0,0,0,5.92,32.7h0a23.49,23.49,0,0,0,32.7-5.92L545.56,466a23.49,23.49,0,0,0-5.92-32.7h0a23.39,23.39,0,0,0-13.37-4.19Z" fill="#3e14d6"/>
    <path d="M414.43,354.4h0a20.32,20.32,0,0,1,11.66,3.66,20.52,20.52,0,0,1,5.16,28.53L361.49,487.16A20.5,20.5,0,1,1,327.8,463.8l69.76-100.58a20.53,20.53,0,0,1,16.87-8.82m0-3a23.49,23.49,0,0,0-19.34,10.11L325.34,462.09a23.5,23.5,0,0,0,5.91,32.7h0A23.51,23.51,0,0,0,364,488.87l69.75-100.58a23.5,23.5,0,0,0-5.91-32.7h0a23.42,23.42,0,0,0-13.37-4.19Z" fill="#3e14d6"/>
    <path d="M264,281.63h0a20.49,20.49,0,0,1,16.82,32.18L211.06,414.39A20.5,20.5,0,1,1,177.37,391l69.76-100.58A20.53,20.53,0,0,1,264,281.63m0-3a23.45,23.45,0,0,0-19.33,10.1L174.91,389.31A23.51,23.51,0,0,0,180.82,422h0a23.51,23.51,0,0,0,32.71-5.92l69.76-100.58a23.51,23.51,0,0,0-5.92-32.7h0A23.34,23.34,0,0,0,264,278.63Z" fill="#3e14d6"/>
    <path d="M127.49,183.8v3A20.51,20.51,0,0,1,144.32,219L74.56,319.57A20.5,20.5,0,1,1,40.87,296.2l69.76-100.58a20.52,20.52,0,0,1,16.86-8.82v-3m0,0a23.47,23.47,0,0,0-19.33,10.11L38.4,294.49a23.49,23.49,0,0,0,5.92,32.7h0A23.48,23.48,0,0,0,77,321.28L146.78,220.7A23.5,23.5,0,0,0,140.86,188h0a23.39,23.39,0,0,0-13.37-4.19Z" fill="#3e14d6"/>
    <path d="M443.43,178.5v3a20.5,20.5,0,0,1,16.82,32.18L390.49,314.26A20.5,20.5,0,0,1,356.8,290.9l69.76-100.58a20.54,20.54,0,0,1,16.87-8.82v-3m0,0a23.46,23.46,0,0,0-19.33,10.11L354.34,289.19a23.5,23.5,0,0,0,5.91,32.7h0A23.49,23.49,0,0,0,393,316l69.76-100.58a23.51,23.51,0,0,0-5.92-32.7h0a23.39,23.39,0,0,0-13.37-4.19Z" fill="#3e14d6"/>
    <path d="M566.28,247.38h0a20.5,20.5,0,0,1,16.82,32.19L513.34,380.14a20.49,20.49,0,1,1-33.68-23.36L549.41,256.2a20.54,20.54,0,0,1,16.87-8.82m0-3A23.47,23.47,0,0,0,547,254.49L477.19,355.07a23.49,23.49,0,0,0,5.92,32.7h0a23.49,23.49,0,0,0,32.7-5.92l69.76-100.57a23.5,23.5,0,0,0-5.92-32.71h0a23.39,23.39,0,0,0-13.37-4.19Z" fill="#3e14d6"/>
    <path d="M291.24,107.34h0a20.51,20.51,0,0,1,16.83,32.19L238.31,240.11a20.5,20.5,0,1,1-33.69-23.37l69.76-100.58a20.51,20.51,0,0,1,16.86-8.82m0-3a23.47,23.47,0,0,0-19.33,10.11L202.15,215a23.49,23.49,0,0,0,5.92,32.7h0a23.5,23.5,0,0,0,32.7-5.91l69.76-100.58a23.5,23.5,0,0,0-5.92-32.71h0a23.39,23.39,0,0,0-13.37-4.19Z" fill="#3e14d6"/>
    <path d="M453.58,7.25v3A20.5,20.5,0,0,1,470.4,42.44L400.64,143A20.5,20.5,0,1,1,367,119.65L436.71,19.07a20.54,20.54,0,0,1,16.87-8.82v-3m0,0a23.46,23.46,0,0,0-19.33,10.11L364.49,117.94a23.5,23.5,0,0,0,5.91,32.7h0a23.49,23.49,0,0,0,32.71-5.91L472.87,44.15A23.52,23.52,0,0,0,467,11.44h0a23.42,23.42,0,0,0-13.37-4.19Z" fill="#3e14d6"/>
    <path d="M594.92,88.1h0a20.5,20.5,0,0,1,16.82,32.18L542,220.86a20.5,20.5,0,0,1-33.69-23.37L578.05,96.91a20.53,20.53,0,0,1,16.87-8.81m0-3a23.46,23.46,0,0,0-19.33,10.11L505.83,195.78a23.51,23.51,0,0,0,5.91,32.71h0a23.51,23.51,0,0,0,32.71-5.92L614.21,122a23.51,23.51,0,0,0-5.92-32.7h0a23.39,23.39,0,0,0-13.37-4.19Z" fill="#3e14d6"/>
  </g>
</svg>
