<svg id="Layer_1" data-name="Layer 1" xmlns="http://www.w3.org/2000/svg" viewBox="0 0 483 140">
  <g>
    <rect x="42" y="38" width="52" height="2" fill="none" stroke="#fff" stroke-linecap="round" stroke-linejoin="round" stroke-width="12"/>
    <rect x="42" y="41" width="3" height="60" fill="none" stroke="#fff" stroke-linecap="round" stroke-linejoin="round" stroke-width="12"/>
    <rect x="42" y="100" width="52" height="2" fill="none" stroke="#fff" stroke-linecap="round" stroke-linejoin="round" stroke-width="12"/>
    <rect x="62" y="67" width="18" height="4" rx="2" fill="none" stroke="#fff" stroke-linecap="round" stroke-linejoin="round" stroke-width="11"/>
  </g>
  <rect x="123.5" y="38.5" width="54" height="1" fill="none" stroke="#fff" stroke-linecap="round" stroke-linejoin="round" stroke-width="11"/>
  <rect x="123.5" y="100.5" width="53" height="1" fill="none" stroke="#fff" stroke-linecap="round" stroke-linejoin="round" stroke-width="11"/>
  <rect x="110.83" y="68.41" width="80.72" height="1.64" transform="translate(303.12 1.63) rotate(131.41)" fill="none" stroke="#fff" stroke-linecap="round" stroke-linejoin="round" stroke-width="11"/>
  <circle cx="232" cy="70" r="31.5" fill="none" stroke="#fff" stroke-linecap="round" stroke-linejoin="round" stroke-width="11"/>
  <rect x="292.5" y="37.5" width="2" height="65" fill="none" stroke="#fff" stroke-linecap="round" stroke-linejoin="round" stroke-width="11"/>
  <rect x="346.5" y="37.5" width="2" height="65" fill="none" stroke="#fff" stroke-linecap="round" stroke-linejoin="round" stroke-width="11"/>
  <rect x="320.66" y="31" width="0.9" height="78.93" transform="translate(26.73 216.82) rotate(-38.81)" fill="none" stroke="#fff" stroke-linecap="round" stroke-linejoin="round" stroke-width="11"/>
  <g>
    <rect x="380.11" y="37.53" width="52" height="2" fill="none" stroke="#fff" stroke-linecap="round" stroke-linejoin="round" stroke-width="12"/>
    <rect x="380.11" y="40.53" width="3" height="60" fill="none" stroke="#fff" stroke-linecap="round" stroke-linejoin="round" stroke-width="12"/>
    <rect x="380.11" y="99.53" width="52" height="2" fill="none" stroke="#fff" stroke-linecap="round" stroke-linejoin="round" stroke-width="12"/>
    <rect x="400.11" y="66.53" width="18" height="4" rx="2" fill="none" stroke="#fff" stroke-linecap="round" stroke-linejoin="round" stroke-width="11"/>
  </g>
</svg>
